<svg id="Camada_1" data-name="Camada 1" xmlns="http://www.w3.org/2000/svg" viewBox="0 0 360.96 373">
  <defs>
    <style>
      .cls-1, .cls-2 {
        stroke: #000;
        stroke-miterlimit: 10;
      }

      .cls-1 {
        stroke-width: 2px;
      }
    </style>
  </defs>
  <g>
    <path class="cls-1" d="M80.08,249.51v-140h39.84q18.17,0,28.81,8.89t10.64,23.15a34.09,34.09,0,0,1-6.44,20.7,34.73,34.73,0,0,1-17.78,12.5v.39q14.16,1.67,22.66,10.69t8.5,23.49q0,18-12.89,29.1T120.9,249.51Zm16.4-125.19v45.21h16.8q13.47,0,21.19-6.49t7.71-18.31q0-20.41-26.85-20.41Zm0,60v50.39h22.27q14.44,0,22.41-6.84t8-18.75q0-24.79-33.79-24.8Z"/>
    <path class="cls-2" d="M234.57,121.39V249.51h-13V121.39H181.25V109.47H275v11.92Z"/>
  </g>
</svg>
